<svg width="232" height="31" viewBox="0 0 232 31" fill="none" xmlns="http://www.w3.org/2000/svg">
<g clip-path="url(#clip0_419_2174)">
<path d="M228.471 24.4902H36.8262V30.1809H228.471V24.4902Z" fill="white"/>
<path fill-rule="evenodd" clip-rule="evenodd" d="M130.944 18.2346L131.423 15.9096H130.845C129.536 15.9592 128.235 15.6697 127.066 15.0682C126.208 14.5719 125.505 13.8388 125.04 12.9536C124.562 12.0598 124.311 11.059 124.31 10.0418C124.278 8.61682 124.69 7.21802 125.487 6.045C126.211 4.95894 127.192 4.07561 128.34 3.47643C129.995 2.69166 131.808 2.31246 133.634 2.36929H134.255L134.821 0H138.633L138.165 2.36929H138.818C140.116 2.32922 141.402 2.62646 142.554 3.23286C143.26 3.64939 143.87 4.21585 144.341 4.89357C144.98 5.8763 145.3 7.03787 145.256 8.215C145.369 9.66389 144.984 11.1078 144.166 12.3004C143.421 13.3148 142.456 14.1408 141.345 14.7139C139.668 15.5127 137.827 15.8923 135.976 15.8211H135.366L134.865 18.1461L130.944 18.2346ZM132.468 12.7654L133.939 5.53571H133.645C132.471 5.48086 131.305 5.74858 130.268 6.31071C129.668 6.72499 129.185 7.29109 128.866 7.95314C128.547 8.6152 128.403 9.35035 128.449 10.0861C128.439 10.6055 128.586 11.1156 128.871 11.5473C129.155 11.979 129.563 12.3114 130.039 12.4996C130.741 12.7354 131.479 12.8404 132.218 12.8096L132.468 12.7654ZM135.605 12.7654H135.932C137.117 12.8331 138.297 12.5648 139.341 11.9904C140.038 11.5668 140.572 10.9147 140.855 10.1414C141.078 9.54025 141.185 8.9014 141.171 8.25928C141.168 7.73286 141.014 7.21873 140.728 6.78011C140.441 6.34148 140.035 5.99747 139.559 5.79036C138.885 5.60164 138.189 5.50119 137.49 5.49143H137.206L135.616 12.7654H135.605ZM46.0838 4.15179L45.4847 7.25179H49.4385C50.8287 7.11347 52.2195 7.50836 53.3379 8.35893C53.8086 8.82504 54.1674 9.39505 54.3865 10.0248C54.6056 10.6545 54.6791 11.3271 54.6014 11.9904C54.5201 12.8273 54.2874 13.6418 53.9152 14.3929C53.5075 15.2422 52.8831 15.9649 52.1071 16.4854C51.4402 16.9156 50.7022 17.2195 49.9287 17.3821C49.0627 17.5724 48.1788 17.6652 47.2928 17.6589H39.3525L42.8598 0.918929H55.6906L55.037 4.15179H46.0838ZM44.7985 10.2964L43.8945 14.5921H47.0532C47.8774 14.6585 48.7035 14.4898 49.4385 14.105C49.7407 13.8977 49.9948 13.6258 50.1829 13.3084C50.371 12.9909 50.4887 12.6356 50.5277 12.2671C50.5612 11.9792 50.5194 11.6874 50.4066 11.4211C50.2938 11.1548 50.1139 10.9235 49.8851 10.7504C49.3305 10.4041 48.6824 10.2452 48.0335 10.2964H44.7985ZM62.0733 7.58393H70.0898L69.4472 10.5843H61.3871L60.5811 14.4482H69.9918L69.3056 17.6479H56.0282L59.5572 0.918929H72.6277L71.9306 4.15179H62.7704L62.0733 7.58393ZM71.4513 17.6479C73.219 17.9539 75.0365 17.6375 76.6032 16.7511C77.6567 16.1073 78.5188 15.1852 79.0975 14.0829C79.7477 12.8085 80.2206 11.4484 80.5026 10.0418L81.7552 4.15179H86.5041L83.6722 17.6479H87.5497L91.0569 0.918929H78.7272L77.1152 8.9125C76.5706 11.5475 75.7827 13.2008 74.7516 13.8725C74.377 14.1477 73.9503 14.3409 73.4985 14.44C73.0467 14.5391 72.5795 14.5419 72.1266 14.4482L71.4513 17.6479ZM96.3396 10.4404L94.9018 17.6479H90.9371L94.4661 0.918929H98.3219L97.0802 7.25179H102.962L104.323 0.918929H108.223L104.705 17.6479H100.838L102.363 10.4404H96.3396ZM114.05 7.58393L114.747 4.15179H123.864L124.561 0.918929H111.49L107.972 17.6479H121.25L121.936 14.4482H112.525L113.418 10.5843H121.478L122.121 7.58393H114.05ZM150.233 4.15179L147.434 17.6479H151.312L154.133 4.15179H159.088L159.807 0.918929H145.985L145.288 4.15179H150.233ZM164.916 7.58393H172.921L172.235 10.5843H164.175L163.369 14.4482H172.791L172.094 17.6479H158.871L162.432 0.918929H175.448L174.762 4.15179H165.635L164.948 7.58393H164.916ZM183.487 12.0125L185.665 17.67H190.207L186.308 9.03429L193.366 0.918929H188.66L184.554 6.24429L182.561 0.918929H178.128L181.755 8.96786L174.207 17.6479H179.032L183.487 11.9904V12.0125ZM197.287 11.7579L205.772 0.918929H209.976L206.447 17.6479H202.569L204.824 6.73143L196.361 17.6479H192.091L195.664 0.918929H199.465L197.287 11.7579ZM217.513 17.6479H220.694L227.022 5.46929L224.506 17.6479H228.362L231.858 0.918929H226.02L220.16 12.4554L218.635 0.918929H213.091L209.54 17.6479H213.461L215.934 5.46929L217.513 17.6479Z" fill="white"/>
<path fill-rule="evenodd" clip-rule="evenodd" d="M0.141602 0H30.6393V31H0.141602V0ZM18.5491 9.61L15.3904 3.07786L12.2208 9.61L14.3012 13.795C14.6798 14.5572 14.8775 15.399 14.8785 16.2529C14.8301 17.8093 14.1773 19.283 13.0628 20.3515C11.9483 21.42 10.4629 21.9964 8.93146 21.9546C8.50749 21.9541 8.08449 21.9134 7.66799 21.8329C7.98137 23.6678 8.93432 25.3266 10.3524 26.5058C11.7705 27.685 13.559 28.3057 15.3904 28.2543C17.2182 28.3003 19.0014 27.6771 20.4149 26.4984C21.8284 25.3197 22.7782 23.6639 23.0911 21.8329C22.6745 21.9128 22.2516 21.9536 21.8276 21.9546C20.2962 21.9964 18.8107 21.42 17.6963 20.3515C16.5818 19.283 15.929 17.8093 15.8806 16.2529C15.8829 15.3965 16.0884 14.5534 16.4796 13.795L18.5491 9.61ZM12.2208 9.61L8.95324 3.06679L3.58348 13.795C3.21706 14.5617 3.02004 15.4006 3.0062 16.2529C3.04698 17.5807 3.53401 18.8542 4.38619 19.8615C5.23837 20.8687 6.40428 21.5488 7.68977 21.7886C7.6369 21.4443 7.61141 21.0963 7.61353 20.7479C7.60604 19.6317 7.86387 18.5303 8.36508 17.5371L12.2208 9.56571V9.61ZM27.1974 13.795L21.8276 3.06679L18.56 9.61L22.4158 17.5814C22.9144 18.576 23.1756 19.6759 23.1782 20.7921C23.1749 21.1404 23.1494 21.488 23.102 21.8329C24.3866 21.5912 25.5514 20.9105 26.4032 19.9037C27.255 18.8969 27.7428 17.6244 27.7855 16.2971C27.7845 15.4433 27.5868 14.6015 27.2083 13.8393L27.1974 13.795ZM18.5491 9.61L15.3904 3.07786L12.2208 9.61L8.95324 3.06679L3.58348 13.795C3.19984 14.5553 3.00184 15.3984 3.0062 16.2529C3.04698 17.5807 3.53401 18.8542 4.38619 19.8615C5.23837 20.8687 6.40428 21.5488 7.68977 21.7886C7.99328 23.6277 8.93902 25.294 10.3535 26.4816C11.768 27.6692 13.5563 28.2986 15.3904 28.2543C17.2182 28.3003 19.0014 27.6771 20.4149 26.4984C21.8284 25.3197 22.7782 23.6639 23.0911 21.8329C24.3757 21.5912 25.5405 20.9105 26.3923 19.9037C27.2442 18.8969 27.7319 17.6244 27.7747 16.2971C27.7736 15.4433 27.5759 14.6015 27.1974 13.8393L21.8276 3.06679L18.5491 9.61ZM18.5491 9.61L15.3904 3.07786L12.2208 9.61L8.95324 3.06679L3.58348 13.795C3.19984 14.5553 3.00184 15.3984 3.0062 16.2529C3.04698 17.5807 3.53401 18.8542 4.38619 19.8615C5.23837 20.8687 6.40428 21.5488 7.68977 21.7886C7.99328 23.6277 8.93902 25.294 10.3535 26.4816C11.768 27.6692 13.5563 28.2986 15.3904 28.2543C17.2182 28.3003 19.0014 27.6771 20.4149 26.4984C21.8284 25.3197 22.7782 23.6639 23.0911 21.8329C24.3757 21.5912 25.5405 20.9105 26.3923 19.9037C27.2442 18.8969 27.7319 17.6244 27.7747 16.2971C27.7736 15.4433 27.5759 14.6015 27.1974 13.8393L21.8276 3.06679L18.56 9.61H18.5491ZM29.7025 0.952143H1.06742V30.0589H29.7025V0.952143Z" fill="white"/>
</g>
<defs>
<clipPath id="clip0_419_2174">
<rect width="232" height="31" fill="white"/>
</clipPath>
</defs>
</svg>
