<svg width="240" height="47" viewBox="0 0 240 47" fill="none" xmlns="http://www.w3.org/2000/svg">
<g clip-path="url(#clip0_419_2179)">
<mask id="mask0_419_2179" style="mask-type:luminance" maskUnits="userSpaceOnUse" x="0" y="0" width="240" height="47">
<path d="M0 0H240V47H0V0Z" fill="white"/>
</mask>
<g mask="url(#mask0_419_2179)">
<path d="M223.492 10.9024C228.138 11.2006 232.536 13.9198 232.536 13.9198C224.345 5.31347 210.788 2.88424 204.527 12.9261C204.527 12.9261 199.566 14.0192 195.814 17.5684C215.103 19.7895 203.161 34.1661 212.329 46.9998H215.442C214.179 44.7434 213.563 42.1815 213.662 39.5966C213.935 32.176 220.072 26.1492 227.484 26.0163C232.843 25.9169 237.53 28.8188 239.999 33.1469V28.4616C234.83 14.2851 223.492 10.9024 223.492 10.9024Z" fill="white"/>
<path d="M214.499 12.776C214.599 13.0405 214.664 13.3225 214.664 13.622C214.664 14.9232 213.613 15.976 212.313 15.976C211.928 15.9769 211.55 15.8834 211.21 15.7036C210.87 15.5239 210.58 15.2634 210.364 14.945C210.148 14.6266 210.013 14.26 209.972 13.8774C209.93 13.4948 209.983 13.1079 210.126 12.7505C209.497 12.8915 208.934 13.0996 208.486 13.3816C208.47 13.5804 208.47 13.7872 208.503 13.994C208.801 16.0177 210.74 17.5431 212.834 17.3686C214.93 17.1859 216.768 15.6108 216.942 13.8771C216.95 13.7811 216.95 13.6845 216.942 13.5884C216.28 13.2487 215.443 12.9667 214.499 12.776Z" fill="#0069FF"/>
<path opacity="0.35" d="M195.814 17.5671C200.27 18.0814 203.053 19.2416 204.825 20.8839C205.919 20.3374 207.144 19.4914 207.731 18.7447C205.173 16.1826 204.527 12.9248 204.527 12.9248C204.519 12.9248 199.566 14.0112 195.814 17.5671Z" fill="#0069FF"/>
<path opacity="0.35" d="M215.434 47.0001C214.171 44.7437 213.555 42.1818 213.654 39.5969C213.795 35.7 215.559 32.1844 218.275 29.7135C216.644 22.3936 207.551 15.8351 195.807 17.5687C215.095 19.7898 203.153 34.1664 212.321 47.0001H215.434Z" fill="#0069FF"/>
<path d="M240 43.244C239.996 44.2416 239.599 45.1971 238.894 45.9022C238.19 46.6074 237.235 47.0049 236.239 47.0081H215.436C214.173 44.7517 213.557 42.1898 213.655 39.6049C213.929 32.1843 220.065 26.1575 227.477 26.0246C230.011 25.9764 232.51 26.6132 234.712 27.8681C236.914 29.123 238.738 30.9495 239.991 33.1551V43.244H240ZM195.816 17.5686C199.568 14.01 204.528 12.925 204.528 12.925C210.79 2.8858 224.347 5.31369 232.537 13.9201C232.537 13.9201 228.14 11.2088 223.494 10.9027C223.494 10.9027 234.831 14.2853 240 28.4699V3.76403C239.996 2.76648 239.599 1.81094 238.894 1.10581C238.19 0.400686 237.235 0.00318288 236.239 0L196.802 0C195.806 0.00318493 194.851 0.400731 194.147 1.1059C193.443 1.81106 193.046 2.7666 193.042 3.76403V43.244C193.046 44.2415 193.443 45.197 194.147 45.9022C194.851 46.6073 195.806 47.0049 196.802 47.0081H212.33C203.162 34.1663 215.105 19.7897 195.816 17.5686Z" fill="white" fill-opacity="0.21"/>
<path d="M149.735 25.2121C150.837 24.8724 151.722 24.299 152.393 23.496C153.064 22.6997 153.403 21.6724 153.403 20.4114C153.403 18.8443 152.832 17.6425 151.689 16.8059C150.546 15.9679 148.973 15.5449 146.952 15.5449H139.565V31.4551H143.183V25.56H146.207L150.762 31.4551H154.721L149.735 25.2121ZM145.519 24.4575H143.183V16.6313H145.503C148.277 16.6313 149.669 17.95 149.669 20.578C149.659 23.1562 148.277 24.4588 145.519 24.4588V24.4575ZM5.46637 31.4551L0 15.5449H3.74346L8.26592 29.324L13.1263 15.5463H16.4728L21.4257 29.2998L25.8235 15.5449H27.537L22.1873 31.4551H18.7508L13.7966 17.9003L8.91084 31.4551H5.46637ZM33.3908 31.4551V15.5449H37.0109V22.6916H45.2004V15.5449H48.8206V31.4551H45.2004V23.8196H37.0109V31.4551H33.3908ZM57.0704 31.4551V15.5449H60.6892V31.4551H57.0704ZM71.9356 31.4551V16.7226H66.2802V15.5449H81.2366V16.7226H75.5557V31.4538L71.9356 31.4551ZM86.7942 31.4551V15.5449H98.7875V16.7226H90.4143V22.6916H98.0836V23.8196H90.4143V30.2788H99.4579V31.4551H86.7942ZM106.065 15.5449H113.667C115.665 15.5449 117.204 15.9102 118.299 16.6313C119.391 17.3605 119.93 18.3139 119.93 19.5077C119.93 20.3873 119.657 21.1245 119.102 21.714C118.555 22.3022 117.868 22.7668 117.056 23.1066C118.24 23.363 119.167 23.8277 119.855 24.4736C120.534 25.1289 120.882 25.9507 120.882 26.9444C120.882 28.3786 120.286 29.4905 119.094 30.2694C117.9 31.0482 116.104 31.447 113.701 31.447H106.065V15.5449ZM113.288 22.7426C113.717 22.7426 114.165 22.6419 114.646 22.4512C115.126 22.2525 115.541 21.9289 115.88 21.4642C116.219 21.001 116.403 20.3953 116.403 19.6406C116.403 18.6469 116.021 17.9003 115.267 17.3846C114.514 16.8797 113.511 16.6313 112.269 16.6313H109.668V22.7494H113.288V22.7413V22.7426ZM112.309 30.3768C115.632 30.3768 117.297 29.2085 117.297 26.8786C117.297 25.8339 116.94 25.055 116.228 24.5327C115.515 24.0089 114.579 23.7538 113.413 23.7538H109.685V30.3862H112.311L112.309 30.3768ZM127.688 31.4551V15.5449H131.308V31.4551H127.688ZM175.774 17.6183C174.192 16.2419 171.981 15.553 169.124 15.553H161.098V31.4632H169.124C172.013 31.4632 174.241 30.7837 175.798 29.4314C177.356 28.0805 178.134 26.1239 178.134 23.5618C178.142 20.9754 177.347 18.9947 175.774 17.6183ZM167.857 30.2774H164.718V16.7226H167.823C172.163 16.7226 174.333 19.0014 174.333 23.5537C174.333 28.0389 172.179 30.2774 167.857 30.2774Z" fill="white"/>
</g>
</g>
<defs>
<clipPath id="clip0_419_2179">
<rect width="240" height="47" fill="white"/>
</clipPath>
</defs>
</svg>
