<svg width="27" height="53" viewBox="0 0 27 53" fill="none" xmlns="http://www.w3.org/2000/svg">
<path opacity="0.979" fill-rule="evenodd" clip-rule="evenodd" d="M13.2622 0.251678C13.6792 0.251678 14.0962 0.251678 14.5131 0.251678C15.1535 0.558836 15.5557 1.10346 15.7192 1.88544C15.7349 3.30551 15.7797 4.71799 15.8532 6.12289C19.3614 6.41835 22.4141 7.89885 25.0111 10.5646C25.7454 12.297 25.4029 13.6754 23.9837 14.7C23.3678 14.9849 22.7423 15.0189 22.1074 14.8021C20.2128 13.1752 18.0983 12.1031 15.7639 11.5856C15.7639 15.4318 15.7639 19.2778 15.7639 23.124C18.1163 23.7421 20.3499 24.7121 22.4647 26.0341C25.3969 28.0882 26.8562 31.1003 26.8427 35.0708C26.4741 41.534 23.496 45.3631 17.9082 46.558C17.1991 46.7103 16.4844 46.7953 15.7639 46.8132C15.7788 48.2091 15.7639 49.6045 15.7192 50.9996C15.5147 51.7264 15.1125 52.2368 14.5131 52.5313C14.126 52.5313 13.7387 52.5313 13.3516 52.5313C12.7657 52.3214 12.3637 51.879 12.1455 51.2039C12.0196 49.7796 11.9749 48.35 12.0114 46.9153C7.92473 46.6984 4.35096 45.0646 1.29006 42.0141C0.254799 40.4507 0.373983 39.0041 1.64735 37.6744C2.4949 37.1031 3.35851 37.069 4.23833 37.5724C6.48833 39.7424 9.0793 41.0869 12.0114 41.6056C12.0263 37.2489 12.0114 32.8922 11.9668 28.5357C9.69233 27.8621 7.50327 26.9261 5.39984 25.7277C1.83533 23.2104 0.480314 19.5856 1.33467 14.8532C2.27813 11.1539 4.31804 8.58414 7.4548 7.14401C8.92746 6.51041 10.4463 6.11904 12.0114 5.96977C11.9965 4.60781 12.0114 3.24636 12.0561 1.88544C12.2188 1.10424 12.6208 0.559607 13.2622 0.251678ZM11.4754 11.3815C11.6541 11.3815 11.8327 11.3815 12.0114 11.3815C12.0263 14.9214 12.0114 18.4611 11.9668 22.0008C10.432 21.5575 9.01733 20.8257 7.72287 19.8055C6.56097 18.4929 6.24828 16.9442 6.78468 15.1595C7.37097 13.6387 8.33873 12.5665 9.68847 11.9431C10.2883 11.7195 10.8839 11.5323 11.4754 11.3815ZM15.7639 29.8631C17.6303 30.2914 19.2534 31.2443 20.6332 32.7221C21.7809 34.9273 21.6916 37.0716 20.3652 39.1551C19.121 40.6285 17.6022 41.4794 15.8086 41.7077C15.7639 37.7597 15.7489 33.8115 15.7639 29.8631Z" fill="#061345"/>
</svg>
