<svg width="39" height="43" viewBox="0 0 39 43" fill="none" xmlns="http://www.w3.org/2000/svg">
<path opacity="0.982" fill-rule="evenodd" clip-rule="evenodd" d="M24.3045 0.839661C25.3572 0.839661 26.4099 0.839661 27.4628 0.839661C31.6571 1.39136 35.2067 3.19997 38.1119 6.2655C38.9943 7.53964 38.8728 8.71389 37.7474 9.7881C36.8079 10.3776 35.8633 10.3776 34.913 9.7881C31.2482 5.84919 26.8482 4.68857 21.7131 6.30587C18.0862 7.93526 15.4949 10.5806 13.9388 14.2421C18.9327 14.2691 23.9266 14.2962 28.9204 14.3231C30.3505 14.702 30.9848 15.6333 30.8235 17.1169C30.6009 18.0685 30.0204 18.6759 29.0824 18.939C23.6027 18.9795 18.1229 18.993 12.6432 18.9795C12.4589 20.5957 12.4319 22.2153 12.5622 23.8384C17.988 23.8249 23.4137 23.8384 28.8394 23.8789C30.5773 24.3714 31.1847 25.4917 30.6615 27.2396C30.326 27.8992 29.7996 28.3177 29.0824 28.4949C23.9806 28.5219 18.8787 28.5489 13.7769 28.5759C14.9789 31.4511 16.8414 33.7996 19.3646 35.6213C24.2223 38.5025 28.8923 38.2325 33.3744 34.8114C33.9118 34.3551 34.4247 33.8693 34.913 33.3538C36.1789 32.6295 37.299 32.8048 38.2737 33.8802C38.9166 34.9674 38.8356 35.993 38.0309 36.9574C35.1178 39.9999 31.5681 41.7816 27.3818 42.3023C26.3291 42.3023 25.2762 42.3023 24.2235 42.3023C19.2643 41.5707 15.2557 39.2223 12.1978 35.2568C10.6918 33.2169 9.57171 30.9765 8.83706 28.5354C6.59631 28.5489 4.35583 28.5354 2.11547 28.4949C0.606814 27.9205 0.0804417 26.8542 0.536356 25.2961C0.89327 24.4536 1.52764 23.9812 2.43947 23.8789C4.24783 23.8384 6.05644 23.8249 7.86519 23.8384C7.76194 22.2194 7.76194 20.5998 7.86519 18.9795C5.97544 18.993 4.08583 18.9795 2.19647 18.939C1.05784 18.5959 0.43697 17.8266 0.333984 16.6311C0.443527 15.4018 1.0914 14.6324 2.27747 14.3231C4.49147 14.3096 6.70496 14.2691 8.91793 14.2017C10.6815 8.88977 14.0288 4.93517 18.9597 2.33777C20.6744 1.56339 22.4559 1.06402 24.3045 0.839661Z" fill="#061345"/>
</svg>
