<svg width="36" height="44" viewBox="0 0 36 44" fill="none" xmlns="http://www.w3.org/2000/svg">
<path opacity="0.99" fill-rule="evenodd" clip-rule="evenodd" d="M8.88708 0.914063C13.9236 0.89632 18.96 0.914064 23.9963 0.967293C29.2954 1.83669 32.9758 4.76722 35.0377 9.75888C36.9059 15.7746 35.5498 20.9074 30.9699 25.1575C28.9256 26.7915 26.601 27.7861 23.9963 28.1412C20.0518 28.1946 16.1073 28.2123 12.1626 28.1946C12.1626 29.3313 12.1626 30.4679 12.1626 31.6046C15.5085 31.5868 18.8545 31.6046 22.2001 31.6579C23.6774 32.2395 24.2586 33.3228 23.9436 34.9081C23.6441 35.7784 23.0631 36.3646 22.2001 36.6664C18.8545 36.7197 15.5085 36.7375 12.1626 36.7197C12.2107 38.5033 12.1578 40.2793 12.004 42.0479C11.0697 43.598 9.78425 43.971 8.14741 43.1669C7.768 42.8556 7.46855 42.4826 7.24934 42.0479C7.09557 40.2793 7.04273 38.5033 7.09081 36.7197C5.32244 36.7683 3.56153 36.715 1.80794 36.5598C0.271128 35.6175 -0.098772 34.321 0.6985 32.6703C1.00707 32.2874 1.37697 31.9855 1.80794 31.7645C3.56153 31.6093 5.32244 31.556 7.09081 31.6046C7.09081 30.4679 7.09081 29.3313 7.09081 28.1946C5.32244 28.2432 3.56153 28.1898 1.80794 28.0347C0.271128 27.0924 -0.098772 25.7959 0.6985 24.1451C1.00707 23.7624 1.37697 23.4605 1.80794 23.2393C3.56153 23.0841 5.32244 23.0309 7.09081 23.0794C7.0732 16.2947 7.09081 9.51022 7.14366 2.72564C7.46264 1.85341 8.04378 1.24963 8.88708 0.914063ZM12.1626 6.02915C15.579 6.01128 18.9952 6.02915 22.4115 6.08238C26.2613 6.34402 28.8853 8.27992 30.283 11.8902C31.3186 16.0046 30.1388 19.2904 26.7435 21.7474C25.4107 22.554 23.9667 22.9804 22.4115 23.0262C18.9952 23.0794 15.579 23.0973 12.1626 23.0794C12.1626 17.396 12.1626 11.7125 12.1626 6.02915Z" fill="#061345"/>
</svg>
