<svg width="30" height="45" viewBox="0 0 30 45" fill="none" xmlns="http://www.w3.org/2000/svg">
<path opacity="0.977" fill-rule="evenodd" clip-rule="evenodd" d="M2.03237 0.399482C2.88497 0.342067 3.59182 0.630534 4.15265 1.26488C7.59296 6.27059 11.0547 11.2612 14.5377 16.2366C18.1437 11.2172 21.7495 6.19784 25.3555 1.17832C26.191 0.498468 27.0997 0.368683 28.0816 0.788835C29.1725 1.58947 29.4465 2.61355 28.9038 3.86108C25.0525 9.21229 21.2015 14.5635 17.3503 19.9147C20.7254 19.9435 24.1006 19.9724 27.4757 20.0013C28.8526 20.4897 29.3863 21.456 29.0768 22.9004C28.7512 23.659 28.1885 24.135 27.3892 24.3284C23.8699 24.3716 20.3505 24.3861 16.8311 24.3716C16.8456 30.3142 16.8311 36.2568 16.7878 42.1993C16.5195 43.3306 15.7983 43.9363 14.6243 44.0168C13.4994 43.9319 12.7783 43.3548 12.4606 42.2858C12.4174 36.3146 12.403 30.3431 12.4174 24.3716C8.92668 24.3861 5.43618 24.3716 1.94581 24.3284C0.417542 23.8249 -0.116174 22.8008 0.34479 21.2562C0.668365 20.615 1.17318 20.1966 1.85924 20.0013C5.14784 19.9724 8.43644 19.9435 11.725 19.9147C7.89968 14.4707 4.10614 9.00418 0.34479 3.51495C-0.109963 1.91419 0.452523 0.875655 2.03237 0.399482Z" fill="#061345"/>
</svg>
