<svg width="49" height="39" viewBox="0 0 49 39" fill="none" xmlns="http://www.w3.org/2000/svg">
<circle cx="19.3709" cy="19.3709" r="19.3709" fill="#335DF3"/>
<g clip-path="url(#clip0_834_412)">
<path d="M25.0795 22.3196L26.2976 21.5487C27.8345 20.5763 28.7521 18.91 28.7521 17.0913C28.7521 15.2086 27.2203 13.6768 25.3376 13.6768C23.4548 13.6768 21.9231 15.2086 21.9231 17.0913V18.2263H24.1931V17.0913C24.1931 16.4602 24.7065 15.9468 25.3376 15.9468C25.9686 15.9468 26.482 16.4602 26.482 17.0913C26.482 18.1273 25.9594 19.0765 25.0839 19.6305L23.8657 20.4014C22.6492 21.1711 21.9229 22.4902 21.9229 23.9298V25.0648H28.7518V22.7948H24.5664C24.7041 22.6094 24.8768 22.4477 25.0795 22.3196Z" fill="url(#paint0_linear_834_412)" fill-opacity="0.76"/>
<path d="M36.8116 25.0621V21.1113H37.956V18.8413H36.8116V15.5685H34.5415V18.8413H32.4286L33.1489 13.8601L30.9023 13.5352L29.8066 21.1113H34.5415V25.0621H36.8116Z" fill="url(#paint1_linear_834_412)" fill-opacity="0.76"/>
<path d="M43.9713 19.3708C43.9713 27.3946 37.4669 33.899 29.4432 33.899C21.3959 33.899 14.915 27.4181 14.915 19.3708C14.915 11.3471 21.4194 4.8427 29.4432 4.8427C33.455 4.8427 37.0863 6.46955 39.715 9.09899L38.0231 10.7909C38.16 11.1564 38.1767 11.2003 38.3137 11.565L45.6156 12.0576L46.0991 11.5741L45.6065 4.27217C45.2418 4.13445 45.1979 4.11856 44.8324 3.9816L43.139 5.67428C39.6333 2.16861 34.7921 0.000741415 29.4432 -1.52588e-05H29.4303C18.7574 0.00679481 10.0526 8.73427 10.0723 19.4079C10.092 30.0891 18.7574 38.7417 29.4432 38.7417C40.141 38.7417 48.814 30.0687 48.814 19.3708H43.9713Z" fill="url(#paint2_linear_834_412)"/>
</g>
<defs>
<linearGradient id="paint0_linear_834_412" x1="22.5674" y1="12.7288" x2="28.7806" y2="18.1062" gradientUnits="userSpaceOnUse">
<stop stop-color="#99C2FF"/>
<stop offset="0.07" stop-color="#CCE1FF"/>
<stop offset="0.41" stop-color="#DEECFF"/>
<stop offset="0.73" stop-color="#E2EEFF"/>
<stop offset="1" stop-color="#EFF6FF"/>
</linearGradient>
<linearGradient id="paint1_linear_834_412" x1="30.5758" y1="12.5756" x2="36.9291" y2="19.0584" gradientUnits="userSpaceOnUse">
<stop stop-color="#99C2FF"/>
<stop offset="0.07" stop-color="#CCE1FF"/>
<stop offset="0.41" stop-color="#DEECFF"/>
<stop offset="0.73" stop-color="#E2EEFF"/>
<stop offset="1" stop-color="#EFF6FF"/>
</linearGradient>
<linearGradient id="paint2_linear_834_412" x1="17" y1="6" x2="41.9466" y2="46.0332" gradientUnits="userSpaceOnUse">
<stop stop-color="#99C2FF"/>
<stop offset="0.07" stop-color="#CCE1FF"/>
<stop offset="0.297244" stop-color="#D5E6FF"/>
<stop offset="0.41" stop-color="#DEECFF"/>
<stop offset="0.73" stop-color="#E2EEFF"/>
<stop offset="1" stop-color="#EFF6FF"/>
</linearGradient>
<clipPath id="clip0_834_412">
<rect width="38.7417" height="38.7417" fill="white" transform="translate(10.0732)"/>
</clipPath>
</defs>
</svg>
