<svg width="756" height="600" viewBox="0 0 756 600" fill="none" xmlns="http://www.w3.org/2000/svg">
<path d="M226.214 288.32C220.404 288.009 215.921 283.042 216.492 277.251C221.056 230.95 239.28 186.958 268.961 150.925C300.88 112.176 344.371 84.6706 393.06 72.4386C441.749 60.2066 493.076 63.8916 539.518 82.9536C585.96 102.016 625.076 135.452 651.132 178.363C677.188 221.274 688.814 271.402 684.307 321.401C679.799 371.401 659.395 418.642 626.085 456.201C592.775 493.76 548.31 519.661 499.208 530.11C453.547 539.827 406.108 535.705 362.92 518.4C357.519 516.235 355.179 509.967 357.584 504.668L377.568 460.623C379.972 455.324 386.207 453.011 391.648 455.074C421.287 466.308 453.608 468.82 484.755 462.192C519.346 454.832 550.669 436.585 574.134 410.126C597.6 383.668 611.973 350.389 615.149 315.167C618.324 279.945 610.134 244.632 591.778 214.403C573.423 184.175 545.868 160.62 513.152 147.192C480.436 133.763 444.278 131.168 409.979 139.784C375.68 148.401 345.043 167.778 322.558 195.074C302.311 219.653 289.633 249.49 285.93 280.969C285.25 286.749 280.322 291.214 274.511 290.903L226.214 288.32Z" fill="#FF5700"/>
<path d="M331.652 490.785C328.575 495.724 322.062 497.253 317.266 493.958C289.925 475.175 266.836 450.79 249.56 422.379C232.283 393.968 221.255 362.249 217.157 329.332C216.438 323.557 220.793 318.478 226.594 318.018L275.223 314.168C281.024 313.709 286.064 318.047 286.892 323.807C290.059 345.826 297.649 367.016 309.245 386.085C320.84 405.154 336.162 421.642 354.256 434.584C358.988 437.97 360.521 444.441 357.444 449.38L331.652 490.785Z" fill="#F3F6FB"/>
</svg>
