<svg width="41" height="40" viewBox="0 0 41 40" fill="none" xmlns="http://www.w3.org/2000/svg">
<circle cx="20.2002" cy="20" r="20" fill="#70748F"/>
<circle cx="20.2002" cy="20" r="20" fill="url(#paint0_linear_891_438)"/>
<g clip-path="url(#clip0_891_438)">
<path d="M24.3295 9.96582H16.6362C13.5095 9.96582 10.9658 12.5095 10.9658 15.6362V23.3295C10.9658 26.4561 13.5095 28.9998 16.6362 28.9998H24.3295C27.4561 28.9998 29.9998 26.4561 29.9998 23.3295V15.6362C29.9998 12.5095 27.4561 9.96582 24.3295 9.96582ZM28.085 23.3295C28.085 25.4036 26.4036 27.085 24.3295 27.085H16.6362C14.5621 27.085 12.8806 25.4036 12.8806 23.3295V15.6362C12.8806 13.562 14.5621 11.8806 16.6362 11.8806H24.3295C26.4036 11.8806 28.085 13.562 28.085 15.6362V23.3295Z" fill="white"/>
<path d="M20.4824 14.5596C17.768 14.5596 15.5596 16.768 15.5596 19.4824C15.5596 22.1968 17.768 24.4053 20.4824 24.4053C23.1969 24.4053 25.4053 22.1969 25.4053 19.4824C25.4053 16.7679 23.1969 14.5596 20.4824 14.5596ZM20.4824 22.4905C18.8211 22.4905 17.4744 21.1438 17.4744 19.4824C17.4744 17.8211 18.8212 16.4744 20.4824 16.4744C22.1438 16.4744 23.4905 17.8211 23.4905 19.4824C23.4905 21.1437 22.1437 22.4905 20.4824 22.4905Z" fill="white"/>
<path d="M25.415 15.7762C26.0665 15.7762 26.5946 15.2481 26.5946 14.5966C26.5946 13.9451 26.0665 13.417 25.415 13.417C24.7635 13.417 24.2354 13.9451 24.2354 14.5966C24.2354 15.2481 24.7635 15.7762 25.415 15.7762Z" fill="white"/>
</g>
<defs>
<linearGradient id="paint0_linear_891_438" x1="20" y1="40" x2="20" y2="5.72854e-07" gradientUnits="userSpaceOnUse">
<stop stop-color="#E09B3D"/>
<stop offset="0.3" stop-color="#C74C4D"/>
<stop offset="0.6" stop-color="#C21975"/>
<stop offset="1" stop-color="#7024C4"/>
</linearGradient>
<clipPath id="clip0_891_438">
<rect width="19.034" height="19.034" fill="white" transform="translate(10.9658 9.96582)"/>
</clipPath>
</defs>
</svg>
