<svg width="40" height="40" viewBox="0 0 40 40" fill="none" xmlns="http://www.w3.org/2000/svg">
<g clip-path="url(#clip0_882_1540)">
<path d="M20 40C31.0457 40 40 31.0457 40 20C40 8.9543 31.0457 0 20 0C8.9543 0 0 8.9543 0 20C0 31.0457 8.9543 40 20 40Z" fill="#039BE5"/>
<path d="M9.1521 19.567L28.4354 12.132C29.3304 11.8087 30.1121 12.3503 29.8221 13.7037L29.8238 13.702L26.5404 29.1703C26.2971 30.267 25.6454 30.5337 24.7338 30.017L19.7338 26.332L17.3221 28.6553C17.0554 28.922 16.8304 29.147 16.3138 29.147L16.6688 24.0587L25.9354 15.687C26.3388 15.332 25.8454 15.132 25.3138 15.4853L13.8621 22.6953L8.92544 21.1553C7.85377 20.8153 7.83044 20.0837 9.1521 19.567Z" fill="white"/>
</g>
<defs>
<clipPath id="clip0_882_1540">
<rect width="40" height="40" fill="white"/>
</clipPath>
</defs>
</svg>
