<svg width="41" height="40" viewBox="0 0 41 40" fill="none" xmlns="http://www.w3.org/2000/svg">
<circle cx="20.4004" cy="20" r="20" fill="black"/>
<path d="M29 17.5852V13.9054C24.0049 13.7023 23.8442 9.33133 23.8442 8.9206V8.88965H19.9834V23.2213C19.983 23.8406 19.7798 24.444 19.4027 24.9457C19.0256 25.4473 18.4938 25.8217 17.883 26.0155C17.2722 26.2094 16.6134 26.2128 16.0005 26.0253C15.3875 25.8377 14.8516 25.4689 14.4689 24.9711C14.0863 24.4734 13.8763 23.8721 13.869 23.2528C13.8617 22.6336 14.0574 22.0278 14.4282 21.5218C14.799 21.0158 15.3261 20.6353 15.9344 20.4344C16.5428 20.2336 17.2014 20.2225 17.8167 20.4029V16.6077C17.5209 16.5712 17.223 16.5529 16.9248 16.5529C15.5552 16.5529 14.2164 16.944 13.0776 17.6767C11.9388 18.4095 11.0512 19.4509 10.5271 20.6694C10.003 21.8879 9.86587 23.2287 10.1331 24.5222C10.4003 25.8158 11.0598 27.0039 12.0282 27.9365C12.9967 28.8691 14.2306 29.5042 15.5738 29.7615C16.9171 30.0188 18.3095 29.8868 19.5748 29.382C20.8401 28.8773 21.9216 28.0226 22.6826 26.926C23.4435 25.8294 23.8496 24.5402 23.8496 23.2213C23.8496 23.1278 23.8496 23.0349 23.8429 22.9427V15.8856C25.6206 17.4517 29 17.5852 29 17.5852Z" fill="#00F6EF"/>
<path d="M30 18.5861V14.9048C25.0043 14.7017 24.8442 10.3313 24.8442 9.92059V9.88965H20.9834V24.2195C20.9832 24.8388 20.7801 25.4422 20.403 25.9439C20.026 26.4456 19.4943 26.82 18.8834 27.0139C18.2726 27.2078 17.6139 27.2113 17.0009 27.0239C16.3879 26.8365 15.8519 26.4677 15.4691 25.9701C15.0864 25.4724 14.8764 24.8712 14.869 24.252C14.8617 23.6327 15.0573 23.027 15.4281 22.5211C15.7989 22.0151 16.326 21.6346 16.9344 21.4337C17.5427 21.2328 18.2014 21.2218 18.8167 21.4022V17.6068C18.5202 17.571 18.2216 17.5536 17.9228 17.5546C16.5532 17.5549 15.2144 17.9464 14.0758 18.6794C12.9373 19.4123 12.05 20.454 11.5263 21.6725C11.0026 22.891 10.8659 24.2317 11.1335 25.525C11.4011 26.8183 12.0611 28.0062 13.0299 28.9384C13.9987 29.8705 15.2328 30.5052 16.5762 30.762C17.9196 31.0188 19.3119 30.8863 20.5771 30.3812C21.8423 29.8761 22.9235 29.0211 23.684 27.9243C24.4445 26.8275 24.8501 25.5383 24.8496 24.2195C24.8496 24.126 24.8496 24.0332 24.8429 23.941V16.8847C26.6206 18.4507 30 18.5861 30 18.5861Z" fill="white"/>
<path d="M23.8457 9.59961C24.0306 10.6064 24.5706 12.1805 26.1447 13.1016C24.9417 11.7004 24.8811 9.89222 24.8811 9.63153V9.59961H23.8457Z" fill="#FF004F"/>
<path d="M30 18.5699V14.7727C29.6202 14.7587 29.2422 14.7143 28.8695 14.6396V17.6289C28.8695 17.6289 25.5132 17.4912 23.7489 15.8759V23.1525C23.7529 23.2476 23.7555 23.3434 23.7555 23.4398C23.7554 24.6841 23.4176 25.9051 22.7784 26.9726C22.1391 28.0402 21.2222 28.9143 20.1253 29.5019C19.0285 30.0895 17.7928 30.3686 16.5499 30.3093C15.307 30.2501 14.1034 29.8548 13.0674 29.1656C14.0201 30.1496 15.245 30.8266 16.585 31.11C17.9251 31.3933 19.3192 31.2701 20.5887 30.7561C21.8582 30.242 22.9453 29.3606 23.7107 28.2248C24.4761 27.089 24.8849 25.7505 24.8847 24.3808C24.8847 24.2844 24.8847 24.1886 24.8781 24.0935V16.8149C26.6437 18.4302 30 18.5699 30 18.5699Z" fill="#FF004F"/>
<path d="M17.7637 20.5337C17.0315 20.3104 16.242 20.3717 15.5531 20.7053C14.8641 21.0389 14.3265 21.6203 14.0476 22.3332C13.7688 23.046 13.7693 23.8379 14.049 24.5504C14.3288 25.2629 14.8671 25.8436 15.5565 26.1764C15.1798 25.6618 14.9745 25.0417 14.9698 24.404C14.9651 23.7663 15.1612 23.1432 15.5302 22.6231C15.8993 22.103 16.4227 21.7122 17.0262 21.5061C17.6297 21.3 18.2828 21.289 18.8929 21.4747V17.5598C18.5984 17.5229 18.3019 17.5049 18.0051 17.5059C17.9233 17.5059 17.8428 17.5059 17.7617 17.5106L17.7637 20.5337Z" fill="#FF004F"/>
</svg>
