<svg width="41" height="40" viewBox="0 0 41 40" fill="none" xmlns="http://www.w3.org/2000/svg">
<circle cx="20.6006" cy="20" r="20" fill="#70748F"/>
<g clip-path="url(#clip0_891_440)">
<path d="M21 40C32.0457 40 41 31.0457 41 20C41 8.95431 32.0457 0 21 0C9.95431 0 1 8.95431 1 20C1 31.0457 9.95431 40 21 40Z" fill="#FF0000"/>
<path d="M27.5447 12.4766H14.4552C13.9321 12.4766 13.4142 12.5796 12.9309 12.7799C12.4477 12.9802 12.0086 13.2737 11.6389 13.6437C11.2691 14.0137 10.9759 14.4529 10.776 14.9363C10.576 15.4197 10.4733 15.9377 10.4736 16.4608V23.5397C10.4733 24.0628 10.576 24.5808 10.776 25.0642C10.9759 25.5476 11.2691 25.9868 11.6389 26.3568C12.0086 26.7268 12.4477 27.0203 12.9309 27.2206C13.4142 27.4209 13.9321 27.5239 14.4552 27.5239H27.5447C28.0678 27.5239 28.5857 27.4209 29.069 27.2206C29.5522 27.0203 29.9913 26.7268 30.361 26.3568C30.7308 25.9868 31.024 25.5476 31.2239 25.0642C31.4239 24.5808 31.5266 24.0628 31.5263 23.5397V16.4608C31.5266 15.9377 31.4239 15.4197 31.2239 14.9363C31.024 14.4529 30.7308 14.0137 30.361 13.6437C29.9913 13.2737 29.5522 12.9802 29.069 12.7799C28.5857 12.5796 28.0678 12.4766 27.5447 12.4766ZM18.2263 23.2266V16.7739L23.7736 20.0002L18.2263 23.2266Z" fill="white"/>
</g>
<defs>
<clipPath id="clip0_891_440">
<rect width="40" height="40" fill="white" transform="translate(1)"/>
</clipPath>
</defs>
</svg>
