<svg width="178" height="32" viewBox="0 0 178 32" fill="none" xmlns="http://www.w3.org/2000/svg">
<g clip-path="url(#clip0_79_945)">
<path d="M0 22.0522V23.6308C0 23.9272 0.352172 24.0753 0.555373 23.8623C4.77825 19.4324 13.7561 12.693 29.9458 11.5746C30.4533 11.5397 30.8517 11.1172 30.8517 10.602V0.925708C30.8517 0.425021 30.4262 0.0361724 29.9349 0.0911219C26.285 0.497425 12.4855 2.85056 2.22947 15.6926C0.792068 17.4927 0 19.7365 0 22.0522Z" fill="#70748F"/>
<path d="M0 26.2132V31.2947C0 31.6881 0.31453 32.0065 0.702749 32.0065H30.1493C30.5372 32.0065 30.8517 31.6881 30.8517 31.2947V17.7649C30.8517 17.2477 30.4421 16.8291 29.9318 16.8291C26.0693 16.8278 10.8835 17.3418 0.534 25.122C0.195226 25.377 0 25.7852 0 26.2132Z" fill="#70748F"/>
<path d="M95.727 21.0977H89.0909C87.0624 21.0977 85.418 22.7636 85.418 24.8187V28.2857C85.418 30.3408 87.0621 32.0071 89.0909 32.0071H95.727C97.7552 32.0071 99.3996 30.3408 99.3996 28.2854V24.8187C99.3996 22.7639 97.7552 21.0977 95.727 21.0977ZM96.5975 28.0342C96.5975 28.7835 95.9981 29.3908 95.259 29.3908H89.5585C88.8191 29.3908 88.2197 28.7835 88.2197 28.0342V25.0702C88.2197 24.3212 88.8191 23.7133 89.5585 23.7133H95.259C95.9981 23.7133 96.5975 24.3206 96.5975 25.0699V28.0342Z" fill="#70748F"/>
<path d="M67.2102 21.0977H64.7891V24.9538C64.7891 25.1051 64.6678 25.2279 64.5186 25.2279H56.7663C56.6167 25.2279 56.4955 25.1051 56.4955 24.9538V22.3311C56.4955 21.6497 55.9506 21.098 55.2782 21.098H53.9984C53.8488 21.098 53.7275 21.2205 53.7275 21.3724V31.733C53.7275 31.8842 53.8488 32.0071 53.9984 32.0071H56.2246C56.3743 32.0071 56.4955 31.8842 56.4955 31.7326V28.1823C56.4955 28.0303 56.6167 27.9075 56.7663 27.9075H64.5186C64.6678 27.9075 64.7891 28.0303 64.7891 28.1823V30.7733C64.7891 31.4543 65.3342 32.0064 66.0067 32.0064H67.2102C67.3599 32.0064 67.4811 31.8836 67.4811 31.732V21.3721C67.4811 21.2202 67.3599 21.0977 67.2102 21.0977Z" fill="#70748F"/>
<path d="M83.1608 21.0977H80.7396V24.9538C80.7396 25.1051 80.6184 25.2279 80.4687 25.2279H72.7165C72.5669 25.2279 72.4457 25.1051 72.4457 24.9538V22.3311C72.4457 21.6497 71.9005 21.098 71.2284 21.098H69.9486C69.799 21.098 69.6777 21.2205 69.6777 21.3724V31.733C69.6777 31.8842 69.799 32.0071 69.9486 32.0071H72.1748C72.3244 32.0071 72.4457 31.8842 72.4457 31.7326V28.1823C72.4457 28.0303 72.5669 27.9075 72.7165 27.9075H80.4687C80.6184 27.9075 80.7396 28.0303 80.7396 28.1823V30.7733C80.7396 31.4543 81.2847 32.0064 81.9569 32.0064H83.1604C83.31 32.0064 83.4313 31.8836 83.4313 31.732V21.3721C83.4316 21.2202 83.3104 21.0977 83.1608 21.0977Z" fill="#70748F"/>
<path d="M146.946 21.0977H138.099C135.539 21.0977 133.464 23.2006 133.464 25.7942V32.0064H134.166C136.298 32.0064 136.241 29.9329 136.241 29.9329V25.8983C136.241 24.6836 137.213 23.6987 138.412 23.6987H144.169C144.319 23.6987 144.44 23.8212 144.44 23.9731V32.0067H145.878C146.618 32.0067 147.217 31.3994 147.217 30.6501V21.3721C147.217 21.2202 147.096 21.0977 146.946 21.0977Z" fill="#70748F"/>
<path d="M175.673 29.5473H169.529C168.523 29.5473 167.707 28.7211 167.707 27.7019V25.2974C167.707 24.2783 168.523 23.4518 169.529 23.4518H175.673C176.956 23.4518 177.996 22.3977 177.996 21.0977H168.839C166.839 21.0977 165.218 22.7403 165.218 24.7667V28.3377C165.218 30.3641 166.839 32.0067 168.839 32.0067H177.996V31.9017C177.996 30.6017 176.956 29.5473 175.673 29.5473Z" fill="#70748F"/>
<path d="M113.091 21.0977H103.738C102.523 21.0977 101.538 22.0951 101.538 23.3267V32.0067H103.162C103.799 32.0067 104.315 31.4841 104.315 30.8386V23.9731C104.315 23.8212 104.436 23.6987 104.586 23.6987H112.244C112.393 23.6987 112.514 23.8212 112.514 23.9731V30.8383C112.514 31.4838 113.031 32.0064 113.667 32.0064H115.291V23.3267C115.291 22.0951 114.307 21.0977 113.091 21.0977Z" fill="#70748F"/>
<path d="M127.683 21.0977H121.047C119.018 21.0977 117.374 22.7636 117.374 24.8187V28.2857C117.374 30.3408 119.018 32.0071 121.047 32.0071H127.683C129.711 32.0071 131.356 30.3408 131.356 28.2854V24.8187C131.355 22.7639 129.711 21.0977 127.683 21.0977ZM128.554 28.0342C128.554 28.7835 127.954 29.3908 127.215 29.3908H121.515C120.775 29.3908 120.176 28.7835 120.176 28.0342V25.0702C120.176 24.3212 120.775 23.7133 121.515 23.7133H127.215C127.954 23.7133 128.554 24.3206 128.554 25.0699V28.0342Z" fill="#70748F"/>
<path d="M49.3962 21.1028L47.4379 21.1083C47.31 21.1083 47.146 21.1374 46.8385 21.5024L40.1877 29.343C40.1546 29.3824 40.1121 29.4038 40.0665 29.4031C39.9705 29.4041 39.8923 29.3091 39.8923 29.1937L39.8943 22.9414C39.8943 21.4186 38.8932 21.0986 38.0549 21.0986L37.3997 21.1019C37.2791 21.1028 37.1812 21.2205 37.1802 21.3656L37.1617 23.6741L37.1592 30.8751C37.1595 31.486 37.571 31.9844 38.0792 31.9844C38.0868 31.9844 39.247 32.0074 39.5201 32.0077C39.81 32.0077 40.6844 31.9861 40.6959 31.9861H40.7128C41.1712 31.9861 41.561 31.5141 41.9046 31.0972C41.9438 31.05 41.9824 31.0028 42.0204 30.9588L48.2564 23.5445C48.2864 23.5087 48.3279 23.488 48.3706 23.4876C48.4615 23.488 48.5343 23.5765 48.5346 23.6864L48.5327 29.9132H48.5282V30.6773C48.5282 31.4117 49.1161 32.0077 49.8415 32.0077H50.9303C51.098 32.0077 51.2339 31.8697 51.2339 31.7V30.9708L51.2355 23.3929C51.2365 22.0454 50.4802 21.1028 49.3962 21.1028Z" fill="#70748F"/>
<path d="M161.734 21.1028L159.776 21.1083C159.648 21.1083 159.484 21.1374 159.176 21.5024L152.526 29.343C152.492 29.3824 152.45 29.4038 152.404 29.4031C152.308 29.4041 152.23 29.3091 152.23 29.1937L152.232 22.9414C152.232 21.4186 151.231 21.0986 150.392 21.0986L149.737 21.1019C149.616 21.1028 149.519 21.2205 149.517 21.3656L149.499 23.6741L149.496 30.8751C149.496 31.486 149.908 31.9844 150.417 31.9844C150.424 31.9844 151.584 32.0074 151.857 32.0077C152.148 32.0077 153.022 31.9861 153.033 31.9861H153.05C153.509 31.9861 153.899 31.5141 154.242 31.0972C154.281 31.05 154.32 31.0028 154.358 30.9588L160.594 23.5445C160.624 23.5087 160.665 23.488 160.708 23.4876C160.799 23.488 160.872 23.5765 160.872 23.6864L160.87 29.9132H160.865V30.6773C160.865 31.4117 161.453 32.0077 162.178 32.0077H163.267C163.435 32.0077 163.571 31.8697 163.571 31.7V30.9708L163.572 23.3929C163.574 22.0454 162.818 21.1028 161.734 21.1028Z" fill="#70748F"/>
<path d="M75.2239 0L59.5832 0.00517172C59.5003 0.00549495 59.4333 0.0733737 59.4336 0.157091C59.4352 1.87766 60.8123 3.27143 62.5103 3.27143L73.9186 3.26917C74.9454 3.26853 75.7787 4.11216 75.7787 5.15297V6.52509L63.8083 6.52606C63.5681 6.52606 63.3738 6.72323 63.3738 6.9663C63.3738 8.2017 64.3621 9.20404 65.5816 9.20404L75.7787 9.20501V10.6993C75.7787 11.6713 75.0006 12.4596 74.0411 12.4596L62.4921 12.4625C60.9373 12.4619 59.6719 13.7047 59.6732 15.232L59.6738 15.6454C59.6732 15.6929 59.7114 15.7295 59.759 15.7298H75.1904C77.7472 15.7298 79.8197 13.6297 79.8197 11.0394V4.65681C79.8197 2.08485 77.7622 0 75.2239 0Z" fill="#70748F"/>
<path d="M52.472 1.62544e-07L51.4942 0.00096986L47.2691 0.00258602L46.0053 0.00323249L42.0688 0.00420218C39.7386 0.00581834 37.0312 1.93325 37.0312 4.41923L37.0335 10.8131L37.0338 11.391C37.0351 13.8757 39.744 15.8019 42.0743 15.8025L47.2752 15.7986H48.9531L52.4787 15.797C54.8076 15.797 57.514 13.867 57.5131 11.3839L57.5108 4.41212C57.5108 1.92711 54.8025 -0.000646302 52.472 1.62544e-07ZM51.6588 12.5156L47.2723 12.5172L42.8903 12.5194C42.7738 12.5201 42.6548 12.5072 42.5368 12.4839C42.5116 12.4774 42.4867 12.4697 42.4641 12.4619C42.4523 12.4574 42.4402 12.4541 42.428 12.4509C42.3457 12.4276 42.2743 12.4086 42.2047 12.3788C42.1763 12.3682 42.1495 12.353 42.1221 12.3378L42.0857 12.3174L42.0612 12.3048C42.0089 12.2786 41.9546 12.2505 41.9049 12.2185C41.8771 12.1978 41.8481 12.1752 41.8207 12.1519L41.7875 12.1244L41.7591 12.1008C41.7192 12.0708 41.6793 12.0394 41.6427 12.0042C41.6133 11.9748 41.5865 11.9428 41.5607 11.9105L41.5358 11.8814L41.5144 11.8562C41.4832 11.8193 41.4525 11.7844 41.4254 11.7456C41.3986 11.7084 41.3766 11.6671 41.3543 11.6276L41.3364 11.5969L41.3221 11.572C41.2991 11.531 41.2768 11.4906 41.2583 11.4492C41.2375 11.4033 41.2206 11.3555 41.205 11.308L41.1964 11.2834L41.1916 11.2663C41.1734 11.2171 41.1584 11.169 41.1466 11.1176C41.1358 11.0717 41.1288 11.0222 41.1221 10.9747L41.1189 10.9469L41.1141 10.9149C41.1042 10.848 41.0937 10.7779 41.0937 10.7009L41.0921 5.10545C41.0918 4.98651 41.1074 4.87628 41.1227 4.79224C41.1304 4.74634 41.1412 4.70206 41.1533 4.65778C41.1731 4.58246 41.1919 4.52008 41.2139 4.46028C41.2315 4.41438 41.2516 4.36816 41.2729 4.32453C41.3007 4.26634 41.3297 4.21172 41.3632 4.15645C41.39 4.11539 41.4155 4.07596 41.443 4.0362C41.4809 3.98352 41.5221 3.93503 41.5639 3.88848C41.5948 3.85293 41.6264 3.81802 41.6596 3.78537C41.709 3.74077 41.7591 3.70069 41.8105 3.66158L41.8328 3.64283C41.8612 3.61988 41.8902 3.59919 41.9218 3.57915C41.9776 3.54069 42.0376 3.51095 42.0982 3.48057L42.1298 3.46408C42.1588 3.44889 42.1878 3.43337 42.2169 3.42303C42.2867 3.39426 42.3543 3.37325 42.4331 3.35386L42.466 3.34319C42.4909 3.33543 42.5148 3.32832 42.5413 3.32218C42.6593 3.29826 42.7738 3.2863 42.8867 3.28727L47.2707 3.28566L51.4942 3.28404L51.6544 3.28307C52.6429 3.28242 53.4481 4.09665 53.4494 5.09996L53.451 10.6971C53.4516 11.6997 52.648 12.5146 51.6588 12.5156Z" fill="#70748F"/>
<path d="M101.313 7.47276C101.889 6.71252 102.232 5.76189 102.232 4.72981C102.232 2.1391 100.159 0.0390625 97.6025 0.0390625H82.1711C82.1236 0.0393857 82.085 0.075911 82.0856 0.123426L82.085 0.53684C82.0837 2.06411 83.3491 3.30694 84.9042 3.30629L96.8223 3.30953C97.7818 3.30953 98.5595 4.09757 98.5595 5.06985C98.5595 5.87793 97.9257 6.53474 97.1342 6.56124L86.2252 6.56383C85.9853 6.56383 85.7907 6.761 85.7907 7.0044C85.7907 8.24011 86.7796 9.24181 87.9988 9.24181H97.7777C97.8006 9.24181 97.8233 9.24052 97.8463 9.23987C98.6504 9.25215 99.2983 9.91543 99.2983 10.7329C99.2983 11.7052 98.5206 12.4932 97.5611 12.4932L84.9046 12.4964C83.3495 12.4958 82.084 13.7386 82.0853 15.2656L82.0859 15.6793C82.0853 15.7268 82.1236 15.763 82.1714 15.7633H98.4536C101.01 15.7633 103.083 13.6636 103.083 11.0729C103.083 9.60221 102.388 8.29636 101.313 7.47276Z" fill="#70748F"/>
</g>
<defs>
<clipPath id="clip0_79_945">
<rect width="178" height="32" fill="white"/>
</clipPath>
</defs>
</svg>
