<svg width="1477" height="756" viewBox="0 0 1477 756" fill="none" xmlns="http://www.w3.org/2000/svg">
<path d="M79.5 0.5H1441C1460.33 0.5 1476 16.17 1476 35.5V132C1476 151.33 1460.33 167 1441 167H35.5C16.1701 167 0.5 182.67 0.5 202V322.5C0.5 341.83 16.17 357.5 35.5 357.5H1441C1460.33 357.5 1476 373.17 1476 392.5V514C1476 533.33 1460.33 549 1441 549H35.5C16.1701 549 0.5 564.67 0.5 584V713C0.5 732.33 16.17 748 35.5 748H1476" stroke="black" stroke-opacity="0.43" stroke-dasharray="9 9"/>
<rect x="1460" y="740" width="16" height="16" fill="#FF5700"/>
</svg>
