<svg width="355" height="962" viewBox="0 0 355 962" fill="none" xmlns="http://www.w3.org/2000/svg">
<path d="M178.249 0.784912H319C338.33 0.784912 354 16.4549 354 35.7849V199.804C354 219.134 338.33 234.804 319 234.804H36C16.67 234.804 1 250.474 1 269.804V448.285C1 467.615 16.67 483.285 36 483.285H319C338.33 483.285 354 498.955 354 518.285V695.285C354 714.615 338.33 730.285 319 730.285H36C16.67 730.285 1 745.955 1 765.285V925.785C1 945.115 16.67 960.785 36 960.785H178.249" stroke="black" stroke-opacity="0.43" stroke-dasharray="9 9"/>
</svg>
