<svg width="371" height="833" viewBox="0 0 371 833" fill="none" xmlns="http://www.w3.org/2000/svg">
<path d="M186.283 1H335C354.33 1 370 16.67 370 36V185.492C370 204.822 354.33 220.492 335 220.492H36C16.67 220.492 1 236.162 1 255.492V406.235C1 425.565 16.67 441.235 36 441.235H335C354.33 441.235 370 456.905 370 476.235V622.605C370 641.935 354.33 657.605 335 657.605H36C16.67 657.605 1 673.275 1 692.605V797C1 816.33 16.67 832 36 832H186.283" stroke="black" stroke-opacity="0.43" stroke-dasharray="9 9"/>
</svg>
