<svg width="195" height="50" viewBox="0 0 195 50" fill="none" xmlns="http://www.w3.org/2000/svg">
<path d="M176.711 19.4215V16.6565H183.681V39.3203H176.711V36.5553H176.53C175.806 37.5827 174.84 38.4138 173.634 39.0483C172.427 39.6829 171.069 40.0002 169.56 40.0002C166.543 40.0002 164.039 38.8973 162.047 36.6913C160.086 34.4854 159.105 31.6146 159.105 28.079C159.105 24.5737 160.071 21.6878 162.002 19.4215C163.963 17.1249 166.483 15.9766 169.56 15.9766C171.069 15.9766 172.427 16.2938 173.634 16.9284C174.84 17.563 175.806 18.394 176.53 19.4215H176.711ZM171.461 33.3824C173 33.3824 174.252 32.8687 175.218 31.8412C176.213 30.7836 176.711 29.4993 176.711 27.9884C176.711 26.4472 176.213 25.163 175.218 24.1355C174.222 23.1081 172.97 22.5944 171.461 22.5944C169.953 22.5944 168.7 23.1081 167.705 24.1355C166.709 25.1327 166.211 26.417 166.211 27.9884C166.211 29.5597 166.709 30.8591 167.705 31.8866C168.7 32.8838 169.953 33.3824 171.461 33.3824Z" fill="white"/>
<path d="M121.663 15.9766C124.74 15.9766 127.245 17.1249 129.176 19.4215C131.137 21.6878 132.118 24.5737 132.118 28.079C132.118 31.6146 131.122 34.4854 129.13 36.6913C127.169 38.8972 124.68 40.0002 121.663 40.0002C120.154 40.0002 118.796 39.6829 117.589 39.0483C116.383 38.4138 115.417 37.5827 114.693 36.5553H114.512V48.3858H107.542V16.6565H114.512V19.4215H114.693C115.417 18.394 116.383 17.563 117.589 16.9284C118.796 16.2938 120.154 15.9766 121.663 15.9766ZM119.762 33.3824C121.271 33.3824 122.523 32.8838 123.518 31.8866C124.514 30.8591 125.012 29.5597 125.012 27.9884C125.012 26.417 124.514 25.1327 123.518 24.1355C122.523 23.1081 121.271 22.5944 119.762 22.5944C118.253 22.5944 117.001 23.1081 116.005 24.1355C115.01 25.163 114.512 26.4472 114.512 27.9884C114.512 29.4993 114.995 30.7836 115.96 31.8412C116.956 32.8687 118.223 33.3824 119.762 33.3824Z" fill="white"/>
<path d="M74.8095 27.49V27.6259C76.1371 27.9886 77.1478 28.6534 77.8418 29.6204C78.5358 30.5571 78.8828 31.645 78.8828 32.884C78.8828 34.6064 78.2793 36.1173 77.0724 37.4167C75.8957 38.6859 74.206 39.3205 72.0034 39.3205H57.1133V16.6567H70.8719C73.1349 16.6567 74.8547 17.2459 76.0314 18.4244C77.2384 19.6029 77.8418 21.0232 77.8418 22.6852C77.8418 24.9516 76.831 26.5532 74.8095 27.49ZM69.1974 22.1413H64.1284V25.2236H69.1974C69.7103 25.2236 70.1025 25.0725 70.3741 24.7703C70.6758 24.4379 70.8267 24.0602 70.8267 23.6371C70.8267 23.2141 70.6909 22.8665 70.4194 22.5946C70.1478 22.2924 69.7405 22.1413 69.1974 22.1413ZM64.1284 33.8358H70.0573C70.6004 33.8358 71.0228 33.6696 71.3245 33.3372C71.6564 33.0048 71.8224 32.612 71.8224 32.1587C71.8224 31.7054 71.6715 31.3277 71.3698 31.0255C71.0681 30.7233 70.6306 30.5722 70.0573 30.5722H64.1284V33.8358Z" fill="white"/>
<path d="M50.3956 36.6007C48.1628 38.867 45.221 40.0002 41.5701 40.0002C37.9193 40.0002 34.9774 38.867 32.7447 36.6007C30.5119 34.3343 29.3955 31.4635 29.3955 27.9884C29.3955 24.5435 30.5119 21.6878 32.7447 19.4215C34.9774 17.1249 37.9193 15.9766 41.5701 15.9766C45.221 15.9766 48.1628 17.1249 50.3956 19.4215C52.6284 21.6878 53.7448 24.5435 53.7448 27.9884C53.7448 31.4635 52.6284 34.3343 50.3956 36.6007ZM37.8589 31.7506C38.8244 32.7176 40.0615 33.2011 41.5701 33.2011C43.0788 33.2011 44.3158 32.7176 45.2814 31.7506C46.2469 30.7534 46.7296 29.5144 46.7296 28.0337C46.7296 26.5228 46.2469 25.2687 45.2814 24.2715C44.346 23.2743 43.1089 22.7757 41.5701 22.7757C40.0313 22.7757 38.7792 23.2743 37.8137 24.2715C36.8783 25.2687 36.4106 26.5228 36.4106 28.0337C36.4106 29.5144 36.8934 30.7534 37.8589 31.7506Z" fill="white"/>
<path d="M159.463 40H150.499L142.41 30.5772V40H135.322V17.0684H142.41V26.1994L149.957 17.0684H158.921L149.123 27.9922L159.463 40Z" fill="white"/>
<path fill-rule="evenodd" clip-rule="evenodd" d="M92.5658 15.9766C96.3374 15.9766 99.3094 17.3364 101.482 20.056C103.654 22.7455 104.514 26.1602 104.062 30.3001H87.7684C88.0098 31.2369 88.5227 32.0226 89.3072 32.6571C90.0917 33.2917 91.1024 33.6695 92.3395 33.7903C93.2145 33.8508 94.0594 33.7299 94.874 33.4277C95.6887 33.0953 96.277 32.642 96.6391 32.0679H96.6467L103.038 34.3105C102.258 35.7698 101.151 36.9713 99.7167 37.9152C97.6348 39.3052 95.2059 40.0002 92.43 40.0002C88.749 40.0002 85.8675 38.8519 83.7856 36.5553C81.7339 34.2285 80.708 31.3729 80.708 27.9884C80.708 24.5435 81.8093 21.6878 84.0119 19.4215C86.2447 17.1249 89.096 15.9766 92.5658 15.9766ZM92.5206 22.1411C91.4042 22.1411 90.4236 22.4131 89.5787 22.957C88.7641 23.4707 88.1908 24.1809 87.8589 25.0874H97.137C96.4732 23.1232 94.9344 22.1411 92.5206 22.1411Z" fill="white"/>
<path d="M195 32.7598H188.449V39.3204H195V32.7598Z" fill="white"/>
<path d="M27.6383 32.7944H0V39.3203H27.6383V32.7944Z" fill="white"/>
<path d="M21.0025 33.7901L21.002 16.6567" stroke="white" stroke-width="7.01881"/>
<path d="M21.003 19.991C15.3552 19.991 9.60437 19.2698 6.99378 24.425C4.3832 29.5802 8.87857 37.2208 8.87857 37.2208" stroke="white" stroke-width="6.69537"/>
</svg>
