<svg width="196" height="50" viewBox="0 0 196 50" fill="none" xmlns="http://www.w3.org/2000/svg">
<g clip-path="url(#clip0_79_534)">
<path d="M176.726 19.4217V16.6567H183.696V39.3205H176.726V36.5555H176.545C175.821 37.5829 174.855 38.414 173.649 39.0485C172.442 39.6831 171.084 40.0004 169.575 40.0004C166.558 40.0004 164.054 38.8975 162.062 36.6915C160.101 34.4856 159.12 31.6148 159.12 28.0792C159.12 24.5739 160.086 21.688 162.017 19.4217C163.978 17.1251 166.498 15.9768 169.575 15.9768C171.084 15.9768 172.442 16.294 173.649 16.9286C174.855 17.5632 175.821 18.3942 176.545 19.4217H176.726ZM171.476 33.3826C173.015 33.3826 174.267 32.8689 175.233 31.8414C176.228 30.7838 176.726 29.4995 176.726 27.9886C176.726 26.4474 176.228 25.1632 175.233 24.1357C174.237 23.1083 172.985 22.5946 171.476 22.5946C169.968 22.5946 168.715 23.1083 167.72 24.1357C166.724 25.1329 166.226 26.4172 166.226 27.9886C166.226 29.5599 166.724 30.8593 167.72 31.8868C168.715 32.884 169.968 33.3826 171.476 33.3826Z" fill="white"/>
<path d="M121.678 15.9768C124.755 15.9768 127.26 17.1251 129.191 19.4217C131.152 21.688 132.133 24.5739 132.133 28.0792C132.133 31.6148 131.137 34.4856 129.145 36.6915C127.184 38.8974 124.695 40.0004 121.678 40.0004C120.169 40.0004 118.811 39.6831 117.604 39.0485C116.398 38.414 115.432 37.5829 114.708 36.5555H114.527V48.386H107.557V16.6567H114.527V19.4217H114.708C115.432 18.3942 116.398 17.5632 117.604 16.9286C118.811 16.294 120.169 15.9768 121.678 15.9768ZM119.777 33.3826C121.286 33.3826 122.538 32.884 123.533 31.8868C124.529 30.8593 125.027 29.5599 125.027 27.9886C125.027 26.4172 124.529 25.1329 123.533 24.1357C122.538 23.1083 121.286 22.5946 119.777 22.5946C118.268 22.5946 117.016 23.1083 116.02 24.1357C115.025 25.1632 114.527 26.4474 114.527 27.9886C114.527 29.4995 115.01 30.7838 115.975 31.8414C116.971 32.8689 118.238 33.3826 119.777 33.3826Z" fill="white"/>
<path d="M74.8241 27.4899V27.6258C76.1517 27.9885 77.1624 28.6533 77.8564 29.6203C78.5504 30.557 78.8974 31.6449 78.8974 32.8839C78.8974 34.6063 78.2939 36.1172 77.087 37.4166C75.9103 38.6858 74.2206 39.3204 72.018 39.3204H57.1279V16.6566H70.8865C73.1495 16.6566 74.8693 17.2458 76.046 18.4243C77.253 19.6028 77.8564 21.0231 77.8564 22.6851C77.8564 24.9515 76.8456 26.5531 74.8241 27.4899ZM69.212 22.1412H64.143V25.2235H69.212C69.7249 25.2235 70.1171 25.0724 70.3887 24.7702C70.6904 24.4378 70.8413 24.0601 70.8413 23.637C70.8413 23.214 70.7055 22.8664 70.434 22.5945C70.1624 22.2923 69.7551 22.1412 69.212 22.1412ZM64.143 33.8357H70.0719C70.615 33.8357 71.0374 33.6695 71.3391 33.3371C71.671 33.0047 71.837 32.6119 71.837 32.1586C71.837 31.7053 71.6861 31.3276 71.3844 31.0254C71.0827 30.7232 70.6452 30.5721 70.0719 30.5721H64.143V33.8357Z" fill="white"/>
<path d="M50.4103 36.6009C48.1775 38.8672 45.2357 40.0004 41.5848 40.0004C37.934 40.0004 34.9921 38.8672 32.7594 36.6009C30.5266 34.3345 29.4102 31.4637 29.4102 27.9886C29.4102 24.5437 30.5266 21.688 32.7594 19.4217C34.9921 17.1251 37.934 15.9768 41.5848 15.9768C45.2357 15.9768 48.1775 17.1251 50.4103 19.4217C52.6431 21.688 53.7595 24.5437 53.7595 27.9886C53.7595 31.4637 52.6431 34.3345 50.4103 36.6009ZM37.8736 31.7508C38.8391 32.7178 40.0762 33.2013 41.5848 33.2013C43.0935 33.2013 44.3305 32.7178 45.2961 31.7508C46.2616 30.7536 46.7443 29.5146 46.7443 28.0339C46.7443 26.523 46.2616 25.2689 45.2961 24.2717C44.3607 23.2745 43.1236 22.7759 41.5848 22.7759C40.046 22.7759 38.7939 23.2745 37.8284 24.2717C36.893 25.2689 36.4253 26.523 36.4253 28.0339C36.4253 29.5146 36.9081 30.7536 37.8736 31.7508Z" fill="white"/>
<path d="M159.478 40H150.514L142.425 30.5772V40H135.337V17.0684H142.425V26.1994L149.972 17.0684H158.936L149.138 27.9922L159.478 40Z" fill="white"/>
<path fill-rule="evenodd" clip-rule="evenodd" d="M92.5805 15.9768C96.3521 15.9768 99.3241 17.3366 101.497 20.0562C103.669 22.7457 104.529 26.1604 104.077 30.3003H87.7831C88.0245 31.2371 88.5374 32.0228 89.3219 32.6573C90.1064 33.2919 91.1171 33.6697 92.3542 33.7905C93.2292 33.851 94.0741 33.7301 94.8887 33.4279C95.7034 33.0955 96.2917 32.6422 96.6538 32.0681H96.6614L103.053 34.3107C102.273 35.77 101.166 36.9715 99.7314 37.9154C97.6495 39.3054 95.2206 40.0004 92.4447 40.0004C88.7637 40.0004 85.8822 38.8521 83.8003 36.5555C81.7486 34.2287 80.7227 31.3731 80.7227 27.9886C80.7227 24.5437 81.824 21.688 84.0266 19.4217C86.2594 17.1251 89.1107 15.9768 92.5805 15.9768ZM92.5353 22.1413C91.4189 22.1413 90.4383 22.4133 89.5934 22.9572C88.7788 23.4709 88.2055 24.1811 87.8736 25.0876H97.1517C96.4879 23.1234 94.9491 22.1413 92.5353 22.1413Z" fill="white"/>
<path d="M195.014 32.7599H188.464V39.3205H195.014V32.7599Z" fill="#FF5700"/>
<path d="M27.6529 32.7945H0.0146484V39.3204H27.6529V32.7945Z" fill="#FF5700"/>
<path d="M21.0171 33.79L21.0166 16.6566" stroke="#FF5700" stroke-width="7.01881"/>
<path d="M21.0176 19.9909C15.3698 19.9909 9.61902 19.2697 7.00843 24.4249C4.39785 29.5801 8.89322 37.2207 8.89322 37.2207" stroke="#FF5700" stroke-width="6.69537"/>
</g>
<defs>
<clipPath id="clip0_79_534">
<rect width="195" height="50" fill="white" transform="translate(0.0146484)"/>
</clipPath>
</defs>
</svg>
